<svg viewBox="0 0 600 420" xmlns="http://www.w3.org/2000/svg">
  <defs>
    <linearGradient id="petalGradient" x1="0%" y1="0%" x2="100%" y2="100%">
      <stop offset="0%" stop-color="#f7c1ce" />
      <stop offset="100%" stop-color="#ed8fa6" />
    </linearGradient>
    <linearGradient id="leafGradient" x1="0%" y1="0%" x2="100%" y2="100%">
      <stop offset="0%" stop-color="#7ca27f" />
      <stop offset="100%" stop-color="#4f7855" />
    </linearGradient>
  </defs>

  <path d="M150 320 C120 270 120 220 200 180 C250 160 300 155 350 180 C430 220 430 270 400 320 Q325 360 275 360 Q225 360 150 320 Z" fill="#fbe0e8" />

  <path d="M250 150 C220 110 170 90 145 130 C120 170 135 225 190 240 C200 160 220 150 250 150 Z" fill="url(#petalGradient)" />
  <path d="M300 140 C330 95 380 75 405 115 C430 155 415 210 360 225 C350 145 330 135 300 140 Z" fill="url(#petalGradient)" />
  <path d="M210 135 C180 95 150 70 120 110 C90 150 110 205 160 225 C170 145 190 140 210 135 Z" fill="url(#petalGradient)" />
  <path d="M335 128 C355 95 385 80 420 110 C455 140 445 200 395 225 C380 145 355 138 335 128 Z" fill="#f8b4ca" />
  <path d="M188 128 C165 95 135 78 100 110 C65 142 75 200 115 225 C130 145 160 140 188 128 Z" fill="#f8b4ca" />

  <path d="M210 190 C180 165 150 150 120 180 C90 210 120 255 170 255 C190 200 200 195 210 190 Z" fill="url(#leafGradient)" />
  <path d="M390 190 C420 165 450 150 480 180 C510 210 480 255 430 255 C410 200 400 195 390 190 Z" fill="url(#leafGradient)" />

  <circle cx="300" cy="190" r="42" fill="#f4d76f" />
  <circle cx="300" cy="190" r="26" fill="#fde9af" />

  <text x="300" y="360" font-family="'Playfair Display', serif" font-size="52" fill="#5a7d6e" text-anchor="middle" font-style="italic">Loto Spa</text>
</svg>
