<svg viewBox="0 0 500 400" xmlns="http://www.w3.org/2000/svg">
  <ellipse cx="150" cy="280" rx="80" ry="40" fill="#5a7d6e" transform="rotate(-35 150 280)"/>
  <ellipse cx="350" cy="280" rx="80" ry="40" fill="#5a7d6e" transform="rotate(35 350 280)"/>
  <ellipse cx="250" cy="80" rx="35" ry="80" fill="#e8a5b8"/>
  <ellipse cx="310" cy="100" rx="35" ry="80" fill="#e8a5b8" transform="rotate(30 310 100)"/>
  <ellipse cx="350" cy="150" rx="35" ry="80" fill="#e8a5b8" transform="rotate(60 350 150)"/>
  <ellipse cx="340" cy="220" rx="35" ry="80" fill="#e8a5b8" transform="rotate(90 340 220)"/>
  <ellipse cx="280" cy="280" rx="35" ry="80" fill="#e8a5b8" transform="rotate(120 280 280)"/>
  <ellipse cx="190" cy="280" rx="35" ry="80" fill="#e8a5b8" transform="rotate(150 190 280)"/>
  <ellipse cx="150" cy="220" rx="35" ry="80" fill="#e8a5b8" transform="rotate(210 150 220)"/>
  <ellipse cx="150" cy="150" rx="35" ry="80" fill="#e8a5b8" transform="rotate(240 150 150)"/>
  <ellipse cx="250" cy="110" rx="28" ry="70" fill="#f0b8ca"/>
  <ellipse cx="300" cy="125" rx="28" ry="70" fill="#f0b8ca" transform="rotate(30 300 125)"/>
  <ellipse cx="335" cy="170" rx="28" ry="70" fill="#f0b8ca" transform="rotate(60 335 170)"/>
  <ellipse cx="320" cy="240" rx="28" ry="70" fill="#f0b8ca" transform="rotate(90 320 240)"/>
  <ellipse cx="265" cy="275" rx="28" ry="70" fill="#f0b8ca" transform="rotate(120 265 275)"/>
  <ellipse cx="205" cy="275" rx="28" ry="70" fill="#f0b8ca" transform="rotate(150 205 275)"/>
  <ellipse cx="165" cy="240" rx="28" ry="70" fill="#f0b8ca" transform="rotate(210 165 240)"/>
  <ellipse cx="165" cy="170" rx="28" ry="70" fill="#f0b8ca" transform="rotate(240 165 170)"/>
  <ellipse cx="250" cy="140" rx="22" ry="60" fill="#f8c5d1"/>
  <ellipse cx="295" cy="155" rx="22" ry="60" fill="#f8c5d1" transform="rotate(30 295 155)"/>
  <ellipse cx="320" cy="190" rx="22" ry="60" fill="#f8c5d1" transform="rotate(60 320 190)"/>
  <ellipse cx="305" cy="255" rx="22" ry="60" fill="#f8c5d1" transform="rotate(90 305 255)"/>
  <ellipse cx="260" cy="270" rx="22" ry="60" fill="#f8c5d1" transform="rotate(120 260 270)"/>
  <ellipse cx="210" cy="270" rx="22" ry="60" fill="#f8c5d1" transform="rotate(150 210 270)"/>
  <ellipse cx="180" cy="255" rx="22" ry="60" fill="#f8c5d1" transform="rotate(210 180 255)"/>
  <ellipse cx="180" cy="190" rx="22" ry="60" fill="#f8c5d1" transform="rotate(240 180 190)"/>
  <circle cx="250" cy="190" r="35" fill="#f4d76f"/>
  <circle cx="250" cy="190" r="25" fill="#f9e5a8"/>
  <text x="250" y="350" font-family="Georgia, serif" font-size="48" fill="#5a7d6e" text-anchor="middle" font-style="italic">Loto Spa</text>
</svg>
